<?xml version="1.0" encoding="iso-8859-1"?>
<!-- Generator: Adobe Illustrator 16.0.0, SVG Export Plug-In . SVG Version: 6.00 Build 0)  -->
<!-- <div>Icons made by <a href="https://www.flaticon.com/authors/google" title="Google">Google</a> from <a href="https://www.flaticon.com/" 			    title="Flaticon">www.flaticon.com</a> is licensed by <a href="http://creativecommons.org/licenses/by/3.0/" 			    title="Creative Commons BY 3.0" target="_blank">CC 3.0 BY</a></div> -->
<!DOCTYPE svg PUBLIC "-//W3C//DTD SVG 1.1//EN" "http://www.w3.org/Graphics/SVG/1.1/DTD/svg11.dtd">
<svg xmlns="http://www.w3.org/2000/svg" xmlns:xlink="http://www.w3.org/1999/xlink" version="1.1" id="Capa_1" x="0px" y="0px" width="512px" height="512px" viewBox="0 0 535.5 535.5" style="enable-background:new 0 0 535.5 535.5;" xml:space="preserve">
<g>
	<g id="person-location">
		<path d="M446.25,0h-357c-28.05,0-51,22.95-51,51v357c0,28.05,22.95,51,51,51h102l76.5,76.5l76.5-76.5h102c28.05,0,51-22.95,51-51    V51C497.25,22.95,474.3,0,446.25,0z M267.75,84.15c38.25,0,68.85,30.6,68.85,68.85s-30.6,68.85-68.85,68.85    S198.9,191.25,198.9,153S229.5,84.15,267.75,84.15z M420.75,357h-306v-22.95c0-51,102-79.05,153-79.05s153,28.05,153,79.05V357z" fill="#000000"/>
	</g>
</g>
</svg>
